<?xml version="1.0" encoding="utf-8"?>
<!-- Generator: Adobe Illustrator 27.5.0, SVG Export Plug-In . SVG Version: 6.00 Build 0)  -->
<svg version="1.1" id="illustration" xmlns="http://www.w3.org/2000/svg" xmlns:xlink="http://www.w3.org/1999/xlink" x="0px"
	 y="0px" viewBox="0 0 4634.469 3470.029" style="enable-background:new 0 0 4634.469 3470.029;" xml:space="preserve">
<rect id="white_background" style="fill:#FFFFFF;" width="4634.469" height="3470.029"/>
<g id="Background">
	<g id="background_13_">
		<g>
			<g>
				<path style="fill:#EDF0F9;" d="M1125.752,2923.876c-87.646-7.641-216.913-33.044-293.898-75.708
					S588.18,2651.806,583.681,2369.11c-5.933-372.768,398.805-546.475,267.705-924.293
					c-102.358-294.987,224.086-692.655,522.267-666.649c718.755,62.685,545.011-602.153,1419.589-477.87
					c164.321,23.351,386.68,208.694,479.924,346.243c175.855,259.415,145.558,617.199,316.456,879.918
					c99.202,152.501,313.626,114.946,408.991,269.884c129.735,210.78,130.105,485.322,10.123,701.824
					c-119.982,216.502-408.817,323.352-646.591,390.973c-165.985,47.205-340.948,55.449-511.927,36.619
					c-143.437-15.797-264.085-6.62-407.856-0.768C2086.757,2939.467,1480.31,2954.788,1125.752,2923.876z"/>
			</g>
			<g>
				<path style="fill:#EDF0F9;" d="M3568.958,1243.331c-23.728-55.156-38.896-123.568-2.613-169.58
					c41.245-52.305,124.79-44.578,187.079-16.33c187.123,84.86,380.289,387.053,223.813,511.941
					C3825.177,1690.727,3638.103,1404.06,3568.958,1243.331z"/>
			</g>
		</g>
	</g>
	<g id="elements">
		<g>
			<path style="fill:#FFFFFF;" d="M1920.604,1934.099c-22.682,0-44.391-19.605-47.661-44.025
				c-3.099-23.139,9.38-48.476,31.053-63.047c16.837-11.321,39.192-16.793,63.514-15.65c5.333-23.18,16.935-51.396,42.167-64.892
				c6.042-3.23,14.028-4.577,22.385-4.589c-6.684-17.5-11.132-37.285-11.655-51.95c-2.581-72.382,28.346-144.083,82.728-191.802
				l3.145,3.599c-53.314,46.78-83.632,117.073-81.102,188.032c0.515,14.446,5.207,34.825,12.117,52.314
				c17.842,1.236,36.483,8.249,43.04,17.092c4.197,5.661,3.574,11.729-1.752,17.089c-7.213,7.259-14.08,6.676-18.569,4.912
				c-11.75-4.618-20.908-22.233-26.013-34.432c-8.877-0.271-16.688,1.072-22.076,3.955c-23.403,12.517-34.411,38.957-39.586,60.985
				c0.506,0.041,1.014,0.086,1.522,0.133c16.359,1.525,38.594,6.863,51.619,23.631c6.833,8.796,9.722,21.242,7.54,32.482
				c-1.774,9.137-6.708,16.468-13.896,20.64c-6.747,3.918-15.064,4.782-23.417,2.431c-10.527-2.96-19.919-10.45-25.121-20.033
				c-7.465-13.75-8.805-30.983-4.22-54.233c0.041-0.207,0.082-0.415,0.124-0.623c-22.982-0.95-44.025,4.25-59.832,14.879
				c-20.198,13.58-31.845,37.064-28.982,58.439c3.137,23.428,24.852,41.978,46.508,39.69l0.5,4.757
				C1923.322,1934.028,1921.96,1934.099,1920.604,1934.099z M1971.303,1816.406c-0.087,0.424-0.172,0.844-0.254,1.265
				c-4.358,22.094-3.172,38.305,3.73,51.02c4.531,8.347,13.045,15.134,22.218,17.714c5.023,1.413,12.527,2.219,19.734-1.964
				c5.976-3.47,10.097-9.655,11.604-17.416c1.927-9.922-0.611-20.894-6.622-28.631c-11.976-15.418-32.872-20.369-48.294-21.807
				C1972.712,1816.52,1972.006,1816.46,1971.303,1816.406z M2039.373,1747.104c6.36,14.627,14.249,26.429,22.385,29.627
				c4.661,1.833,9.059,0.578,13.442-3.834c3.657-3.679,4.07-7.13,1.303-10.863c-4.28-5.772-15.71-11.172-29.119-13.757
				C2044.668,1747.754,2041.987,1747.363,2039.373,1747.104z"/>
			<path style="fill:#FFFFFF;" d="M3264.868,2078.191l-2.601-4.01c59.429-38.686,99.443-103.928,107.039-174.524
				c1.689-15.689,0.66-35.405-5.378-52.524c-11.542-2.648-22.207-8.941-28.982-18.008c-3.57-4.777-1.907-10.078,1.149-12.982
				c3.661-3.479,8.902-3.665,12.746-0.448c8.442,7.063,14.46,16.607,18.561,27.184c8.01,1.459,16.331,1.035,23.695-1.635
				c24.945-9.045,39.604-33.641,47.862-54.705c-0.495-0.114-0.99-0.23-1.486-0.349c-19.787-4.76-44.887-15.803-52.156-41.337
				c-3.725-13.086,0.04-27.07,9.592-35.625c7.382-6.612,16.771-8.929,26.439-6.527c12.104,3.007,23.275,13.221,27.788,25.411
				c5.43,14.676,4.304,31.924-3.544,54.28c-0.07,0.199-0.141,0.401-0.211,0.6c22.617,4.219,44.18,2.082,61.341-6.178
				c21.923-10.555,36.794-32.136,37.003-53.702c0.229-23.636-18.648-45.096-40.383-45.929l0.182-4.779
				c24.213,0.925,45.229,24.643,44.975,50.755c-0.228,23.345-16.186,46.64-39.711,57.966c-18.276,8.798-41.187,11.023-65.093,6.414
				c-8.578,22.18-24.078,48.451-50.971,58.203c-7.401,2.684-15.539,3.377-23.478,2.346c5.555,17.284,6.476,36.584,4.809,52.082
				C3366.305,1972.181,3325.488,2038.731,3264.868,2078.191z M3343.972,1818.363c-1.802-0.538-3.506,0.22-4.591,1.25
				c-1.505,1.431-2.569,4.029-0.613,6.646c5.378,7.197,13.733,12.483,22.95,15.253c-3.76-8.613-8.963-16.313-15.936-22.146
				C3345.181,1818.864,3344.571,1818.542,3343.972,1818.363z M3421.499,1707.698c-0.432-0.129-0.866-0.248-1.301-0.356
				c-5.722-1.422-14.203-1.63-22.109,5.451c-8.197,7.342-11.41,19.411-8.183,30.747c6.638,23.316,30.131,33.531,48.681,38
				c0.69,0.166,1.379,0.326,2.067,0.48c0.146-0.408,0.291-0.812,0.432-1.215c7.458-21.245,8.593-37.461,3.571-51.031
				C3440.836,1719.442,3431.636,1710.727,3421.499,1707.698z"/>
			<path style="fill:#FFFFFF;" d="M2361.147,1706.549c-56.446,0-102.37-46.01-102.37-102.563
				c0-56.553,45.923-102.562,102.37-102.562c56.446,0,102.368,46.009,102.368,102.562
				C2463.515,1660.539,2417.593,1706.549,2361.147,1706.549z M2361.147,1510.782c-51.297,0-93.029,41.81-93.029,93.204
				c0,51.394,41.732,93.205,93.029,93.205s93.028-41.812,93.028-93.205C2454.175,1552.592,2412.444,1510.782,2361.147,1510.782z"/>
			<path style="fill:#FFFFFF;" d="M748.855,2355.397c-36.837,0-66.806-30.026-66.806-66.933s29.969-66.932,66.806-66.932
				c36.837,0,66.805,30.025,66.805,66.932S785.691,2355.397,748.855,2355.397z M748.855,2227.64
				c-33.476,0-60.711,27.285-60.711,60.824c0,33.54,27.235,60.826,60.711,60.826c33.476,0,60.71-27.286,60.71-60.826
				C809.564,2254.925,782.331,2227.64,748.855,2227.64z"/>
			<path style="fill:#FFFFFF;" d="M3106.5,2707.458c-34.159,0-61.95-27.842-61.95-62.066c0-34.223,27.791-62.064,61.95-62.064
				s61.95,27.842,61.95,62.064C3168.45,2679.617,3140.659,2707.458,3106.5,2707.458z M3106.5,2588.989
				c-31.042,0-56.297,25.304-56.297,56.403c0,31.101,25.255,56.405,56.297,56.405c31.043,0,56.298-25.304,56.298-56.405
				C3162.798,2614.293,3137.543,2588.989,3106.5,2588.989z"/>
			<path style="fill:#FFFFFF;" d="M1373.653,1188.287c-36.984,0-67.074-30.146-67.074-67.2c0-37.054,30.09-67.201,67.074-67.201
				c36.984,0,67.074,30.147,67.074,67.201C1440.727,1158.142,1410.637,1188.287,1373.653,1188.287z M1373.653,1060.018
				c-33.61,0-60.954,27.396-60.954,61.07c0,33.674,27.344,61.069,60.954,61.069s60.954-27.395,60.954-61.069
				C1434.607,1087.413,1407.263,1060.018,1373.653,1060.018z"/>
			<path style="fill:#FFFFFF;" d="M1623.024,2124.902h-203.116v-203.498h203.116V2124.902z M1427.525,2117.272h187.881v-188.24
				h-187.881V2117.272z"/>
			<path style="fill:#FFFFFF;" d="M3219.567,1191.581h-173.139v-173.467h173.139V1191.581z M3052.921,1185.075h160.153V1024.62
				h-160.153V1185.075z"/>
			<path style="fill:#FFFFFF;" d="M3861.697,2138.471l-122.428-122.66l122.428-122.66l122.428,122.66L3861.697,2138.471z
				 M3748.452,2015.812l113.245,113.459l113.245-113.459l-113.245-113.459L3748.452,2015.812z"/>
			<path style="fill:#FFFFFF;" d="M2308.02,2381.931l-122.428-122.659l122.428-122.66l122.428,122.66L2308.02,2381.931z
				 M2194.775,2259.271l113.245,113.459l113.245-113.459l-113.245-113.459L2194.775,2259.271z"/>
			<g>
				<rect x="972.477" y="1373.159" style="fill:#FFFFFF;" width="187.72" height="6.966"/>
			</g>
			<g>
				<rect x="899.861" y="1407.601" style="fill:#FFFFFF;" width="187.72" height="6.966"/>
			</g>
			<g>
				<rect x="2431.301" y="464.422" style="fill:#FFFFFF;" width="187.72" height="6.966"/>
			</g>
			<g>
				<rect x="2358.685" y="498.864" style="fill:#FFFFFF;" width="187.72" height="6.966"/>
			</g>
			<g>
				<g>
					<path style="fill:#FFFFFF;" d="M2114.652,1205.162c-28.051,0.001-55.437-6.88-80.285-20.498
						c-43.843-24.027-74.698-67.025-85.158-118.425l-75.368,38.756l93.348-169.945c1.291-2.598,2.652-5.206,4.047-7.753
						c51.769-94.464,164.322-132.715,250.904-85.266c86.579,47.448,114.899,162.902,63.131,257.367
						c-25.053,45.713-64.914,79.769-112.242,95.893C2153.669,1201.887,2134.001,1205.162,2114.652,1205.162z M1953.943,1056.588
						l0.769,4.269c9.247,51.356,39.405,94.431,82.74,118.179c40.39,22.135,87.803,25.751,133.508,10.18
						c45.805-15.605,84.403-48.598,108.683-92.901c50.068-91.36,22.889-202.906-60.587-248.653
						c-83.475-45.748-192.123-8.638-242.19,82.722c-1.365,2.49-2.696,5.041-3.957,7.581l-0.062,0.118l-83.274,151.607
						L1953.943,1056.588z"/>
				</g>
				<g>
					<path style="fill:#FFFFFF;" d="M2003.444,988.275l5.464-8.526c5.724,4.01,9.782,7.259,12.179,9.751
						c1.505-8.019,2.665-13.504,3.479-16.456l8.791,2.169c-1.364,4.253-3.388,9.503-6.067,15.748
						c4.815-1.221,10.189-2.121,16.118-2.697l0.113,9.902c-5.662,0.55-11.046,0.519-16.152-0.093
						c1.798,2.902,4.088,7.848,6.865,14.837l-8.877,3.72c-1.353-3.995-2.771-9.329-4.255-16c-4.763,5.361-8.741,9.363-11.934,12.005
						l-5.553-7.281c6.485-5.028,11.027-8.288,13.627-9.78C2012.343,993.207,2007.743,990.773,2003.444,988.275z"/>
					<path style="fill:#FFFFFF;" d="M2051.767,1000.202l5.465-8.526c5.723,4.009,9.782,7.259,12.178,9.751
						c1.505-8.018,2.665-13.504,3.48-16.456l8.79,2.169c-1.364,4.253-3.388,9.502-6.067,15.748
						c4.815-1.222,10.189-2.121,16.119-2.697l0.112,9.902c-5.661,0.55-11.046,0.519-16.152-0.093
						c1.798,2.902,4.088,7.848,6.865,14.837l-8.877,3.72c-1.353-3.995-2.771-9.329-4.255-16.001
						c-4.763,5.361-8.74,9.363-11.934,12.005l-5.553-7.281c6.485-5.028,11.027-8.288,13.627-9.78
						C2060.666,1005.133,2056.066,1002.7,2051.767,1000.202z"/>
					<path style="fill:#FFFFFF;" d="M2100.091,1012.128l5.464-8.526c5.723,4.009,9.782,7.259,12.179,9.75
						c1.504-8.018,2.665-13.504,3.479-16.456l8.791,2.17c-1.365,4.253-3.388,9.502-6.067,15.748
						c4.815-1.222,10.188-2.121,16.118-2.697l0.112,9.902c-5.661,0.55-11.045,0.519-16.152-0.093
						c1.798,2.902,4.089,7.848,6.866,14.837l-8.878,3.72c-1.353-3.995-2.771-9.329-4.255-16c-4.763,5.361-8.74,9.363-11.933,12.005
						l-5.554-7.281c6.485-5.028,11.027-8.288,13.627-9.78C2108.989,1017.06,2104.39,1014.627,2100.091,1012.128z"/>
					<path style="fill:#FFFFFF;" d="M2148.415,1024.055l5.464-8.526c5.724,4.009,9.782,7.259,12.179,9.75
						c1.505-8.018,2.665-13.504,3.479-16.456l8.791,2.17c-1.364,4.253-3.388,9.503-6.067,15.748
						c4.815-1.222,10.188-2.121,16.118-2.697l0.113,9.902c-5.662,0.55-11.046,0.519-16.153-0.093
						c1.799,2.902,4.089,7.848,6.866,14.837l-8.877,3.72c-1.353-3.995-2.771-9.329-4.255-16.001
						c-4.763,5.361-8.741,9.363-11.934,12.005l-5.553-7.281c6.485-5.028,11.027-8.288,13.627-9.78
						C2157.313,1028.987,2152.713,1026.553,2148.415,1024.055z"/>
					<path style="fill:#FFFFFF;" d="M2196.738,1035.981l5.465-8.526c5.723,4.01,9.782,7.259,12.178,9.751
						c1.505-8.018,2.665-13.504,3.479-16.456l8.791,2.17c-1.364,4.253-3.388,9.502-6.067,15.748
						c4.815-1.222,10.189-2.121,16.119-2.698l0.112,9.902c-5.661,0.55-11.046,0.52-16.152-0.092
						c1.798,2.902,4.088,7.848,6.865,14.837l-8.877,3.719c-1.353-3.995-2.771-9.329-4.255-16c-4.763,5.361-8.74,9.363-11.934,12.005
						l-5.553-7.28c6.485-5.029,11.027-8.288,13.627-9.78C2205.637,1040.914,2201.037,1038.48,2196.738,1035.981z"/>
				</g>
			</g>
		</g>
	</g>
	<g id="ground">
		<ellipse style="fill:#BBC9ED;" cx="2266.731" cy="3049.786" rx="1887.263" ry="195.466"/>
		<path style="fill:#BBC9ED;" d="M4332.47,2927.74c-32.462,39.868-145.472,126.921-215.193,156.395
			c-349.744-21.117-745.363-40.193-757.208-81.511c-0.111-0.391-0.231-1.072-0.354-1.944c-1.462-10.303-0.343-20.759,3.129-30.68
			c4.498-12.856,10.86-29.071,13.535-34.403c28.409-56.668,90.906-122.608,118.493-162.406
			c25.179-36.95,95.938-90.131,142.165-76.145c56.29,17.024,61.401,51.108,42.095,97.935
			c-17.308,42.043,61.126-51.557,141.049-132.502c32.737-33.134,101.107-71.879,146.688-54.061
			c35.83,14.003,43.72,58.481,27.039,89.767c-10.025,18.821-36.887,58.153-65.63,98.953c-21.909,31.097-44.934,63.039-62.438,87.367
			c18.091-24.69,41.136-55.269,67.313-88.265c110.427-139.132,276.361-321.084,359.553-285.084
			c71.699,31.028,1.703,152.565-88.303,257.389c-22.203,25.847-45.639,50.694-68.468,72.898
			c26.491-20.547,55.213-39.954,79.589-55.788c9.888-6.422,20.676-12.708,31.934-18.25c38.551-18.958,82.625-29.077,115.263-5.612
			c2.643,1.899,5.012,3.919,7.166,6.043C4409.201,2806.824,4368.79,2883.141,4332.47,2927.74z"/>
		<path style="fill:#BBC9ED;" d="M287.936,2980.162c23.937,29.398,75.842,79.938,127.253,101.672
			c257.895-15.571,581.045-15.986,589.78-46.453c0.082-0.289,0.17-0.791,0.261-1.434c1.078-7.597,0.253-15.307-2.307-22.623
			c-3.317-9.479-8.008-21.437-9.981-25.368c-20.949-41.786-67.033-90.409-87.375-119.756
			c-18.566-27.246-70.743-66.461-104.83-56.148c-41.508,12.553-45.276,37.687-31.04,72.215
			c12.762,31.002-45.074-38.018-104.007-97.705c-24.139-24.432-74.555-53.003-108.165-39.864
			c-26.421,10.326-32.239,43.123-19.938,66.193c7.392,13.878,27.2,42.881,48.394,72.967c16.155,22.93,33.134,46.484,46.041,64.423
			c-13.34-18.206-30.333-40.754-49.636-65.085c-81.427-102.594-203.784-236.762-265.129-210.217
			c-52.87,22.88-1.256,112.499,65.113,189.794c16.372,19.06,33.654,37.381,50.488,53.754
			c-19.534-15.151-40.713-29.461-58.688-41.137c-7.291-4.736-15.246-9.37-23.547-13.457c-28.427-13.98-60.926-21.441-84.993-4.138
			c-1.949,1.401-3.696,2.89-5.284,4.456C231.356,2891,261.155,2947.275,287.936,2980.162z"/>
		<path style="fill:#BBC9ED;" d="M1307.675,2885.129c23.937,29.398,139.682,109.367,191.093,131.101
			c257.895-15.571,517.205-45.415,525.94-75.882c0.082-0.289,0.17-0.79,0.261-1.434c1.078-7.597,0.253-15.307-2.307-22.623
			c-3.317-9.479-8.008-21.437-9.981-25.368c-20.949-41.786-67.033-90.409-87.375-119.756
			c-18.566-27.246-70.743-66.461-104.83-56.148c-41.508,12.553-45.276,37.687-31.04,72.215
			c12.762,31.002-45.073-38.018-104.007-97.705c-24.139-24.432-74.555-53.003-108.165-39.864
			c-26.421,10.326-32.239,43.123-19.938,66.193c7.392,13.878,27.2,42.881,48.394,72.967c16.155,22.93,33.134,46.484,46.041,64.423
			c-13.34-18.206-30.333-40.754-49.636-65.085c-81.427-102.594-203.784-236.762-265.129-210.217
			c-52.87,22.88-1.256,112.499,65.113,189.794c16.372,19.06,33.654,37.381,50.488,53.754
			c-19.534-15.151-40.713-29.461-58.688-41.137c-7.291-4.736-15.246-9.37-23.547-13.457c-28.427-13.98-60.926-21.441-84.993-4.138
			c-1.949,1.401-3.696,2.89-5.284,4.456C1251.094,2795.968,1280.893,2852.243,1307.675,2885.129z"/>
	</g>
</g>
<g id="man">
	<ellipse style="fill:#E6E6E6;" cx="1470.827" cy="3061.21" rx="713.288" ry="59.052"/>
	<g>
		<path style="fill:#191D40;" d="M1253.642,3019.832c1.238-11.144,17.452-82.875,37.262-101.448
			c19.811-18.573,29.786,9.107,54.55,7.869c24.764-1.238,70.719-24.141,70.719-24.141s20.72,52.096,67.771,61.382
			c47.051,9.286,111.518,34.05,111.437,56.337C1595.346,3029.502,1253.642,3019.832,1253.642,3019.832z"/>
		<polygon style="fill:#717D89;" points="1595.463,3050.786 1253.642,3052.987 1253.642,3009.926 1595.463,3019.832 		"/>
	</g>
	<g>
		<path style="fill:#191D40;" d="M945.895,2910.978c7.83-3.834,18.467-7.28,27.07-8.69c19.803-3.246,40.969,5.844,48.868,29.821
			c9.758,24.262,19.516,48.524,29.274,72.787c2.704,6.723,5.295,14.796,1.224,20.791c-4.101,6.04-12.645,6.565-19.946,6.477
			c-57.802-0.693-115.603-1.385-173.405-2.078c-6.38-19.536,7.484-39.366,20.511-55.261c12.799-15.615,13.579-23.118,27.016-38.185
			C916.754,2925.15,933.2,2918.227,945.895,2910.978z"/>
		<path style="fill:#717D89;" d="M1055.853,3051.592l-196.836,1.265c0,0-1.639-31.325-1.64-31.474
			c0.01,1.562,82.449-13.301,89.345-13.615c27.97-1.274,56.103,0.929,83.522,6.607c10.297,2.133,21.365,2.066,25.449,11.794
			C1058.292,3032.362,1055.808,3044.656,1055.853,3051.592z"/>
	</g>
	<g>
		<g>
			<defs>
				<path id="SVGID_1_" d="M867.425,2823.626c9.727,25.938-22.796,97.269-1.671,106.995c21.125,9.727,111.909-32.423,144.332-16.211
					c32.423,16.211,64.846,17.687,64.846,17.687l188.053-776.383c0,0-22.696,483.101-12.969,515.524
					c9.727,32.423,12.969,77.815,3.242,106.996c-9.727,29.181,0,153.863,0,153.863h194.537c0,0,31.335-1050.993,32.502-1136.276
					c1.643-119.965-22.776-162.114-22.776-162.114l-424.74,64.846c0,0-84.299,736-97.269,774.907
					c-12.969,38.907-42.15,158.872-35.665,178.326L867.425,2823.626z"/>
			</defs>
			<use xlink:href="#SVGID_1_"  style="overflow:visible;fill:#3664C9;"/>
			<clipPath id="SVGID_00000081614486951953786190000011036336049096646556_">
				<use xlink:href="#SVGID_1_"  style="overflow:visible;"/>
			</clipPath>
			<g style="clip-path:url(#SVGID_00000081614486951953786190000011036336049096646556_);">
				<rect x="886.002" y="1460.95" style="fill:#191D40;" width="3.045" height="1729.868"/>
				<rect x="980.741" y="1460.95" style="fill:#191D40;" width="3.044" height="1729.868"/>
				<rect x="1075.478" y="1460.95" style="fill:#191D40;" width="3.045" height="1729.868"/>
				<rect x="1170.216" y="1460.95" style="fill:#191D40;" width="3.045" height="1729.868"/>
				<rect x="1264.953" y="1460.95" style="fill:#191D40;" width="3.045" height="1729.868"/>
				<rect x="1359.692" y="1460.95" style="fill:#191D40;" width="3.045" height="1729.868"/>
				<rect x="1454.429" y="1460.95" style="fill:#191D40;" width="3.045" height="1729.868"/>
				<rect x="1549.167" y="1460.95" style="fill:#191D40;" width="3.045" height="1729.868"/>
				<rect x="1643.904" y="1460.95" style="fill:#191D40;" width="3.045" height="1729.868"/>
				<rect x="1738.643" y="1460.95" style="fill:#191D40;" width="3.045" height="1729.868"/>
				<rect x="768.199" y="2371.73" style="fill:#191D40;" width="1091.292" height="3.047"/>
				<rect x="768.199" y="2276.992" style="fill:#191D40;" width="1091.292" height="3.047"/>
				<rect x="768.199" y="2182.255" style="fill:#191D40;" width="1091.292" height="3.047"/>
				<rect x="768.199" y="2087.519" style="fill:#191D40;" width="1091.292" height="3.045"/>
				<rect x="768.199" y="1992.78" style="fill:#191D40;" width="1091.292" height="3.045"/>
				<rect x="768.199" y="1898.043" style="fill:#191D40;" width="1091.292" height="3.045"/>
				<rect x="768.199" y="1803.305" style="fill:#191D40;" width="1091.292" height="3.045"/>
				<rect x="768.199" y="1708.568" style="fill:#191D40;" width="1091.292" height="3.045"/>
				<rect x="768.199" y="1613.829" style="fill:#191D40;" width="1091.292" height="3.045"/>
				<rect x="768.199" y="1519.092" style="fill:#191D40;" width="1091.292" height="3.045"/>
				<rect x="768.199" y="3209.906" style="fill:#191D40;" width="1091.292" height="3.047"/>
				<rect x="768.199" y="3115.169" style="fill:#191D40;" width="1091.292" height="3.047"/>
				<rect x="768.199" y="3020.431" style="fill:#191D40;" width="1091.292" height="3.047"/>
				<rect x="768.199" y="2925.694" style="fill:#191D40;" width="1091.292" height="3.047"/>
				<rect x="768.199" y="2830.956" style="fill:#191D40;" width="1091.292" height="3.047"/>
				<rect x="768.199" y="2736.217" style="fill:#191D40;" width="1091.292" height="3.047"/>
				<rect x="768.199" y="2641.479" style="fill:#191D40;" width="1091.292" height="3.047"/>
				<rect x="768.199" y="2546.742" style="fill:#191D40;" width="1091.292" height="3.047"/>
				<rect x="768.199" y="2452.004" style="fill:#191D40;" width="1091.292" height="3.047"/>
			</g>
		</g>
		<path style="opacity:0.68;fill:#191309;" d="M1064.741,1803.351c0,0,283.624-45.432,344.089-90.929
			c27.86-20.964-382.36,40.894-382.36,40.894l-6.305,54.309L1064.741,1803.351z"/>
		<polygon style="opacity:0.68;fill:#191309;" points="1262.984,2155.715 1314.861,1913.544 1249.247,2515.675 		"/>
	</g>
	<g>
		<path style="fill:#1D4C35;" d="M803.296,1455.624c0,0-5.639,21.372,28.705,48.391s110.729,92.159,119.671,96.663
			c13.004,6.55,13.004-2.652,13.004-2.652S898.209,1467.836,803.296,1455.624z"/>
		<g>
			<path style="fill:#FC876D;" d="M980.888,1860.269c-29.57-25.376-221.73-166.445-238.72-219.489
				c-18.632-58.275,63.333-188.14,79.847-185.113c139.894,25.636,139.289,124.115,139.289,124.115l-33.071,39.772
				c0,0,116.982,149.405,144.952,197.304c27.97,47.856-20.472,74.826-62.449,81.786L980.888,1860.269z"/>
			<path style="opacity:0.74;fill:#5B2915;" d="M833.079,1471.451c0,0,85.038,78.9,110.818,129.253l13.232-16.172
				C957.129,1584.532,884.113,1475.363,833.079,1471.451z"/>
			<path style="fill:#5B2915;" d="M927.72,1619.529c-14.977-18.223-36.233-40.683-51.427-56.316l3.099-3.014
				c15.253,15.692,36.598,38.249,51.668,56.586L927.72,1619.529z"/>
		</g>
		<path style="fill:#FFFFFF;" d="M1026.452,1748.89V1520.21l-12.494,15.736l-2.81,3.545l-13.791,17.336l-2.767,3.545l-13.834,17.379
			l-2.81,3.545l-13.963,19.324c0,0-36.054-84.429-160.688-144.995c0,0,4.409-5.879,12.364-15.909
			c0.865-1.081,1.772-2.205,2.767-3.415c3.847-4.842,8.43-10.505,13.574-16.773c0.908-1.081,1.859-2.205,2.81-3.372
			c4.28-5.144,8.949-10.721,13.963-16.6c0.951-1.124,1.902-2.248,2.897-3.372c45.392-52.957,116.377-128.438,184.335-171.02
			c17.076-10.678,35.233-20.102,54.341-28.229c1.297-0.605,2.637-1.167,3.934-1.686c5.793-2.421,11.672-4.712,17.638-6.917
			c1.383-0.519,2.767-1.038,4.193-1.513c6.009-2.161,12.148-4.236,18.33-6.182c1.513-0.475,2.983-0.951,4.496-1.383
			c61.69-18.762,130.686-27.019,202.665-26.673c166.294-5.452,318.019,122.466,318.019,122.466l-47.193,191.18l-138.025-26.998
			l5.969,245.347c0,0-177.402,90.588-450.492,69.013L1026.452,1748.89z"/>
		<g>
			<path style="fill:#B2D3CB;" d="M1346.013,1152.62c-9.64,42.193-32.942,81.663-75.135,88.061
				c-4.712,0.735-9.554,1.038-14.396,1.038c-44.744,0-94.329-28.748-122.04-61.085c1.513-0.475,2.983-0.951,4.496-1.383
				c30.218,34.368,85.294,64.111,131.291,57.151c39.729-6.009,61.95-43.447,71.374-83.824
				C1343.073,1152.534,1344.543,1152.577,1346.013,1152.62z"/>
			<path style="fill:#B2D3CB;" d="M1370.006,1153.139c-9.597,61.344-41.156,99.646-89.876,106.996
				c-6.701,1.037-13.402,1.513-20.146,1.513c-56.848,0-112.875-34.671-148.065-73.319c1.383-0.519,2.767-1.038,4.193-1.513
				c51.315,56.675,119.23,75.913,163.412,69.212c58.361-8.862,79.112-60.22,86.072-103.018
				C1367.066,1153.01,1368.536,1153.053,1370.006,1153.139z"/>
			<path style="fill:#B2D3CB;" d="M1390.886,1154.09c-9.424,72.325-45.089,117.241-102.37,126.147
				c-8.776,1.34-17.595,1.989-26.328,1.989c-67.396,0-132.026-38.475-171.842-85.294c1.297-0.605,2.637-1.167,3.934-1.686
				c44.268,51.531,119.014,92.514,193.63,80.928c68.175-10.548,91.606-69.731,98.652-122.343
				C1387.99,1153.874,1389.416,1153.961,1390.886,1154.09z"/>
			<path style="fill:#B2D3CB;" d="M980.757,1577.75l-2.81,3.545c-35.017-64.587-93.464-115.728-162.287-141.58
				c0.865-1.081,1.772-2.205,2.767-3.415C887.12,1462.454,945.395,1513.423,980.757,1577.75z"/>
			<path style="fill:#B2D3CB;" d="M997.358,1556.827l-2.767,3.545c-35.233-64.327-93.767-115.253-162.59-140.845
				c0.908-1.081,1.859-2.205,2.81-3.372C903.461,1442.049,961.822,1492.759,997.358,1556.827z"/>
			<path style="fill:#B2D3CB;" d="M1013.958,1535.946l-2.81,3.545c-35.276-63.981-93.724-114.518-162.374-139.937
				c0.951-1.124,1.902-2.248,2.897-3.372C920.061,1421.904,978.336,1472.224,1013.958,1535.946z"/>
			<path style="fill:#FFFFFF;" d="M1653.339,1403.228l-4.237-0.086c-6.485-75.438-3.545-137.819,3.631-218.92
				c1.513,0.216,2.94,0.389,4.193,0.519C1649.708,1265.755,1646.811,1327.964,1653.339,1403.228z"/>
			<path style="fill:#FFFFFF;" d="M1631.291,1402.839l-4.193-0.043c-6.485-75.654-3.502-139.808,3.804-221.341
				c1.427,0.173,2.767,0.346,4.107,0.475C1627.79,1263.377,1624.807,1327.359,1631.291,1402.839z"/>
			<path style="fill:#FFFFFF;" d="M1609.287,1402.45l-4.15-0.043c-6.484-75.697-3.502-142.071,3.848-223.777l4.15,0.346
				C1605.828,1260.681,1602.802,1326.926,1609.287,1402.45z"/>
			<path style="fill:#FFFFFF;" d="M1480.373,1654.917v4.669c-132.372,62.771-264.658,75.87-352.07,75.87
				c-59.183,0-97.745-6.009-101.851-6.701c-0.173,0-0.302-0.043-0.346-0.043l0.346-1.945l0.389-2.161
				C1029.089,1724.993,1254.926,1762.604,1480.373,1654.917z"/>
			<path style="fill:#FFFFFF;" d="M1480.373,1635.463v4.669c-132.372,62.771-264.658,75.87-352.07,75.87
				c-59.183,0-97.745-6.009-101.851-6.701c-0.173,0-0.302-0.043-0.346-0.043l0.346-1.945l0.389-2.161
				C1029.089,1705.54,1254.926,1743.15,1480.373,1635.463z"/>
			<path style="fill:#FFFFFF;" d="M1480.373,1616.009v4.669c-132.372,62.771-264.658,75.87-352.07,75.87
				c-59.183,0-97.745-6.009-101.851-6.701c-0.173,0-0.302-0.043-0.346-0.043l0.346-1.945l0.389-2.161
				C1029.089,1686.086,1254.926,1723.697,1480.373,1616.009z"/>
		</g>
		<polygon style="opacity:0.68;fill:#191309;" points="1474.405,1439.226 1474.405,1364.653 1600.096,1464.053 		"/>
		<polygon style="opacity:0.68;fill:#191309;" points="1026.47,1520.226 1068.447,1456.155 1026.47,1653.16 		"/>
		<g>
			<path style="fill:#FC876D;" d="M1119.925,1944.125c-1.794,1.263-4.383,0.439-4.97-1.579
				c-3.493-11.585-6.986-23.171-10.479-34.756c-0.676,0.224-1.038,0.355-1.038,0.355s-7.979,22.975-30.809,20.775
				c0,0-5.072,13.7-25.7,11.931c0,0-1.531,14.158-11.378,13.177c-9.8-1.019-17.594-39.836-21.446-43.926
				c-2.512-2.591-16.846-15.923-29.934-32.489l-1.471-1.862c-0.943-1.193-1.886-2.387-2.781-3.618
				c-12.84-16.84-9.493-20.26-25.204-38.475c-10.03-11.615-32.716-31.3-46.509-42.966c-6.741-5.686-11.364-9.476-11.364-9.476
				l80.21-66.009l1.134,1.042l60.344,53.902c1.292,1.537,2.633,3.037,3.973,4.538c5.591,2.561,12.138,8.787,16.017,11.538
				c13.349,9.536,26.684,19.936,37.72,31.843c0.888,0.927,1.728,1.892,2.567,2.857l-0.018-0.219
				c11.999,12.93,21.568,27.003,23.443,40.565c0.108,0.923,0.217,1.845,0.288,2.719c5.526,16.415,8.299,33.764,8.514,50.033
				C1131.14,1924.951,1128.858,1937.765,1119.925,1944.125z"/>
			<g>
				<path style="fill:#7E4B39;" d="M1091.384,1860.365c-0.037-0.375,0.217-0.723,0.594-0.795c0.399-0.077,0.785,0.185,0.862,0.584
					c1.052,5.486,3.011,11.228,5.085,17.306c3.463,10.147,7.044,20.641,6.245,30.216c-0.034,0.405-0.39,0.707-0.795,0.673
					c-0.406-0.034-0.707-0.391-0.673-0.795c0.773-9.269-2.757-19.613-6.171-29.618c-2.091-6.129-4.066-11.918-5.137-17.505
					C1091.389,1860.409,1091.386,1860.387,1091.384,1860.365z"/>
				<path style="fill:#7E4B39;" d="M1064.297,1880.333c-0.033-0.332,0.164-0.655,0.493-0.768c0.384-0.133,0.803,0.071,0.937,0.455
					c5.292,15.294,11.289,32.629,8.096,49.554c-0.075,0.4-0.461,0.662-0.86,0.587c-0.4-0.075-0.661-0.462-0.587-0.86
					c3.122-16.543-2.808-33.68-8.041-48.8C1064.315,1880.445,1064.302,1880.389,1064.297,1880.333z"/>
				<path style="fill:#7E4B39;" d="M1035.312,1885.153c-0.038-0.384,0.229-0.737,0.615-0.799c0.401-0.065,0.779,0.208,0.845,0.609
					c1.079,6.668,2.982,13.584,4.821,20.273c3.242,11.79,6.595,23.98,5.825,35.818c-0.026,0.406-0.377,0.714-0.783,0.687
					c-0.406-0.026-0.715-0.38-0.687-0.783c0.754-11.589-2.565-23.66-5.775-35.331c-1.851-6.726-3.764-13.681-4.856-20.428
					C1035.316,1885.183,1035.313,1885.168,1035.312,1885.153z"/>
			</g>
			<path style="fill:#FC876D;" d="M1119.045,1800.778c7.526,4.742,4.809,16.367-4.039,17.277
				c-14.465,1.488-29.677-0.742-43.651-4.437c-18.715-4.948-59.005-36.927-27.793-44.416
				C1061.241,1764.961,1095.27,1785.797,1119.045,1800.778z"/>
		</g>
		<g>
			<g>
				<path style="fill:#FED03D;" d="M1853.779,627.288l-66.612,9.537c-52.84-24.784-64.118-92.847-21.587-131.365l66.596-9.535
					l-11.164-67.886l-278.243,39.839l10.938,66.516l0.225,1.371l21.602,131.363l0.225,1.371l10.938,66.516l278.243-39.839
					L1853.779,627.288z"/>
				<polygon style="fill:#FED03D;" points="1574.757,802.949 1866.266,760.751 1878.957,837.015 1587.448,879.213 				"/>
				<polygon style="fill:#FED03D;" points="1579.035,704.911 1705.319,684.975 1730.634,851.423 1604.349,871.359 				"/>
				<polygon style="fill:#FED03D;" points="1850.257,2267.191 1836.854,2179.18 1827.384,2117.039 1576.647,461.238 
					1451.215,481.004 1707.553,2173.587 1711.423,2198.947 1724.826,2286.958 				"/>
				<polygon style="fill:#ED9F00;" points="1576.639,461.23 1534.359,467.893 1807.97,2273.842 1850.25,2267.179 				"/>
				<path style="fill:#D88B03;" d="M1717.061,2236.754l125.417-19.867l-12.175-80.275c-40.161,42.72-87.611,60.23-118.215,67.382
					L1717.061,2236.754z"/>
				<g>
					<path style="fill:#FED03D;" d="M2163.938,2584.23c-31.219-206.152-172.171-358.924-327.95-367.493
						c-12.227-0.677-24.537-0.461-36.906,0.694c-4.03,0.354-8.079,0.83-12.131,1.402c-1.339,0.189-2.692,0.404-4.027,0.615
						c-17.786,2.823-34.946,7.499-51.375,13.867c-145.932,56.46-235.082,245.756-203.863,451.907
						c34.732,229.346,205.323,392.67,381.015,364.782c5.413-0.859,10.761-1.899,16.053-3.072
						C2091.285,3009.242,2197.599,2806.511,2163.938,2584.23z M1774.779,2364.327c9.329-3.29,19.006-5.73,28.976-7.313
						c117.49-18.649,231.569,90.55,254.799,243.944c23.226,153.37-53.2,292.808-170.69,311.457
						c-9.561,1.518-19.102,2.199-28.571,2.036c-106.879-1.456-204.87-105.069-226.206-245.959
						C1611.827,2528.114,1674.021,2399.431,1774.779,2364.327z"/>
					<path style="fill:#ED9F00;" d="M2163.938,2584.23c-31.219-206.152-172.171-358.924-327.95-367.493
						c-12.227-0.677-24.537-0.461-36.906,0.694c-10.6,1.635-18.881,1.616-26.624,4.178c4.176,0.004,12.222-0.441,16.376-0.219
						c155.779,8.57,295.815,164.319,327.034,370.471c32.05,211.637-62.783,405.547-215.675,456.138
						c8.156,0.038,16.344-0.309,24.562-1.066C2091.285,3009.242,2197.599,2806.511,2163.938,2584.23z"/>
					<path style="fill:#ED9F00;" d="M1774.779,2364.327c-114.97,24.818-189.11,160.204-166.697,308.205
						c22.483,148.466,133.861,254.762,251.21,241.919c-106.879-1.456-204.87-105.069-226.206-245.959
						C1611.827,2528.114,1674.021,2399.431,1774.779,2364.327z"/>
				</g>
			</g>
		</g>
		<g>
			<path style="fill:#FC876D;" d="M1913.062,1438.813c-27.807,75.011-181.616,44.215-181.616,44.215l-25.354-155.345
				c0,0-65.084-129.297-97.32-154.519c-37.219-29.15-56.728-50.032-63.815-68.74c-0.749-1.968-1.364-3.99-1.852-5.947
				c-1.704-6.888-1.682-13.563-0.292-20.347c0.127-0.727,0.316-1.481,0.495-2.195c1.91-7.632,4.042-13.823,6.564-18.719
				c0.321-0.623,0.649-1.233,0.985-1.83c0.38-0.685,0.773-1.334,1.159-1.952c12.749-19.764,34.125-11.7,77.092,7.307
				c54.698,24.162,70.428,51.406,101.818,96.207C1796.476,1250.451,1949.774,1339.781,1913.062,1438.813z"/>
			<path style="fill:#5B2915;" d="M1766.796,1411.381c-35.802-28.025-51.48-61.749-66.642-94.362
				c-4.533-9.754-10.18-22.052-14.955-31.017l3.868,1.421c4.83,9.069,10.449,17.967,15.008,27.773
				c14.946,32.153,30.402,65.397,65.387,92.784L1766.796,1411.381z"/>
			<path style="fill:#FC876D;" d="M1689.905,1063.471c5.297,20.925,12.773,42.48,15.851,63.773
				c-15.185-5.652-38.94-23.859-42.853-40.962C1658.742,1068.093,1682.266,1033.295,1689.905,1063.471z"/>
			<path style="fill:#5B2915;" d="M1623.886,1090.784c-0.323,0.414-0.895,0.545-1.363,0.307l-71.665-35.706
				c0.38-0.685,0.773-1.334,1.159-1.952l71.495,35.685C1624.126,1089.427,1624.31,1090.231,1623.886,1090.784z"/>
			<path style="fill:#5B2915;" d="M1608.044,1110.308L1608.044,1110.308c-0.368,0.357-0.923,0.425-1.365,0.165
				c-10.225-6.013-21.909-11.851-32.134-17.238c-10.263-5.466-20.935-11.078-31.219-17.172c0.136-0.723-0.192,0.59-0.014-0.123
				l0.517-2.01c10.4,6.168,21.803,12.008,32.234,17.515c10.075,5.343,21.559,11.12,31.767,17.054
				C1608.485,1108.879,1608.588,1109.781,1608.044,1110.308z"/>
			<path style="fill:#5B2915;" d="M1596.689,1135.062L1596.689,1135.062c-0.431,0.236-0.958,0.186-1.336-0.128
				c-14.503-12.034-33.428-22.563-51.091-32.387c-0.754-1.971-0.664-2.114-1.156-4.065c18.805,10.336,38.085,21.633,53.78,34.592
				C1597.543,1133.616,1597.436,1134.653,1596.689,1135.062z"/>
			<path style="opacity:0.74;fill:#5B2915;" d="M1706.092,1327.682c0,0,43.783,139.238,90.686,161.624
				c0,0-14.924-0.085-35.177-2.132c-9.883-0.999-30.155-4.147-30.155-4.147L1706.092,1327.682z"/>
		</g>
	</g>
	<g>
		<path style="fill:#5B2915;" d="M1365.596,837.34c-0.519,3.156-1.124,6.225-1.816,9.251c-3.718,16.687-10.159,31.342-22.782,43.144
			c-0.908,0.778-1.773,1.513-2.681,2.291c-32.596,27.235-81.922,39.124-120.094,57.367c-10.116,4.842-43.36,26.63-53.865,22.35
			c-5.879-2.421-11.196-12.494-15.433-23.561c-4.453-11.586-7.781-24.296-9.294-30.218c-4.928-19.151-11.888-44.527-3.458-62.425
			c5.058-10.678,13.315-25.938,27.451-24.296c8.56-21.096,19.151-33.115,32.898-46.214c9.165-8.732,21.572-15.866,33.547-20.102
			c11.932-4.237,27.754-0.389,32.423,11.413c17.854-18.892,48.678-23.95,71.59-11.715c11.153,5.966,20.059,16.6,25.679,29.267
			C1365.726,807.208,1368.06,822.771,1365.596,837.34z"/>
		<path style="opacity:0.22;fill:#020101;" d="M1365.596,837.34c-0.519,3.156-1.124,6.225-1.816,9.251
			c-3.718,16.687-10.159,31.342-22.782,43.144c-0.908,0.778-1.773,1.513-2.681,2.291c-32.596,27.235-81.922,39.124-120.094,57.367
			c-10.116,4.842-43.36,26.63-53.865,22.35c-5.879-2.421-11.196-12.494-15.433-23.561c0.346-0.864,0.692-1.772,0.995-2.637
			c3.674-10.375,3.631-21.269,6.009-31.948c2.767-12.321,7.825-24.382,16.428-33.806c9.381-10.332,22.177-16.73,34.714-22.869
			c29.094-14.396,58.188-28.748,87.283-43.101c3.891-1.859,8.473-4.107,12.883-2.637c3.415,2.464,4.237,4.237,6.96,6.182
			c6.874,4.799,18.719,3.761,25.982,0.735c8.387-3.502,16.428-14.785,19.583-24.209
			C1365.726,807.208,1368.06,822.771,1365.596,837.34z"/>
		<path style="fill:#FC876D;" d="M1353.751,947.448c0.043,1.513,0,3.026,0,4.582c-0.043,10.721-0.259,20.837-0.648,30.175
			c-1.211,30.477-4.107,52.871-9.078,60.306c-6.485,9.727-25.938,28.1-25.938,28.1l6.485,82.008c0,0-26.673,122.083-166.524,21.875
			l31.428-158.354c0,0-8.387-0.648-16.471-12.234c-10.894-15.693-14.958-57.151,16.211-48.764l1.599-9.122l6.442-37.005
			c1.167-6.873,5.923-12.493,12.45-14.828c6.139-2.118,14.569-5.058,24.036-8.56c2.853-1.038,5.793-2.118,8.819-3.286
			c5.015-1.859,10.159-3.848,15.347-5.923c1.989-0.778,3.977-1.556,5.923-2.378c3.242-1.297,6.398-2.637,9.554-3.977
			c1.556-0.649,3.113-1.34,4.669-2.032c0.649-0.303,1.34-0.562,1.989-0.865c2.421-1.038,4.756-2.118,7.047-3.156l0.043-0.043
			c2.94-1.34,5.793-2.724,8.516-4.107c1.643-0.821,3.199-1.599,4.712-2.421c1.772-0.908,3.458-1.816,5.058-2.766
			c2.896-1.6,5.49-3.242,7.825-4.799c5.188,3.026,9.727,5.966,13.661,8.949C1353.059,878.582,1354.053,899.808,1353.751,947.448z"/>
		<path style="opacity:0.74;fill:#5B2915;" d="M1220.835,1021.454c0,0,50.255,44.311,114.149,32.085l-16.88,17.09
			C1318.103,1070.629,1278.115,1100.35,1220.835,1021.454z"/>
		<path style="opacity:0.74;fill:#5B2915;" d="M1189.487,1016.147c0,0,7.57-0.096,10.813-2.798l-13.949,18.594L1189.487,1016.147z"
			/>
		<path style="fill:#5B2915;" d="M1244.115,928.066l-0.078-0.174c-1.445-3.208,0.169-6.923,3.459-8.171
			c13.942-5.288,28.981-7.69,43.878-6.981l-0.587,12.239c-13.291-0.635-26.715,1.528-39.145,6.277
			C1248.705,932.378,1245.407,930.934,1244.115,928.066z"/>
		<path style="fill:#5B2915;" d="M1317.752,922.718l-2.731-11.948c10.204-2.333,20.614-2.987,30.993-1.949
			c1.711,0.171,2.936,1.772,2.71,3.477l-0.81,6.099c-0.217,1.634-1.692,2.755-3.333,2.596
			C1335.591,920.12,1326.584,920.693,1317.752,922.718z"/>
		<ellipse style="fill:#5B2915;" cx="1271.965" cy="940.667" rx="5.944" ry="8.916"/>
		<ellipse style="fill:#5B2915;" cx="1330.262" cy="936.095" rx="5.944" ry="8.916"/>
		<path style="fill:#5B2915;" d="M1307.578,976.351c-0.663,0-1.275-0.435-1.469-1.102c-0.239-0.813,0.226-1.663,1.039-1.9
			c5.471-1.602,11.914-4.792,13.588-8.94c1.319-3.261-0.006-6.968-1.541-11.259c-0.374-1.049-0.756-2.119-1.108-3.209
			c-1.429-4.416-3.308-8.914-5.746-13.754c-0.38-0.754-0.076-1.676,0.68-2.056c0.756-0.388,1.676-0.078,2.056,0.68
			c2.51,4.98,4.448,9.621,5.923,14.189c0.344,1.057,0.716,2.098,1.081,3.12c1.672,4.676,3.253,9.094,1.497,13.438
			c-2.622,6.495-12.579,9.856-15.568,10.729C1307.865,976.33,1307.719,976.351,1307.578,976.351z"/>
		<path style="fill:#FFFFFF;" d="M1291.08,986.465c0,0,16.172,14.188,39.181,2.837c0,0-5.246,19.454-22.685,18.238
			C1290.139,1006.324,1291.08,986.465,1291.08,986.465z"/>
		<path style="opacity:0.74;fill:#5B2915;" d="M1175.84,966.311c-2.853,2.136-3.087,6.328-2.461,9.836
			c1.436,8.045,6.117,15.462,12.762,20.219c-2.63-6.103-1.796-13.071-0.915-19.657c0.399-2.986,2.378-8.263-0.106-10.662
			C1183.143,964.137,1177.73,964.747,1175.84,966.311z"/>
		
			<ellipse transform="matrix(0.1602 -0.9871 0.9871 0.1602 102.7857 2058.9553)" style="fill:#E26C66;" cx="1261.399" cy="969.073" rx="17.392" ry="17.392"/>
		<path style="fill:#E26C66;" d="M1353.751,947.448c0.043,1.513,0,3.026,0,4.582c-0.043,10.721-0.259,20.837-0.648,30.175
			c-9.295-0.346-16.687-7.998-16.687-17.336C1336.415,955.273,1344.154,947.491,1353.751,947.448z"/>
		<path style="opacity:0.74;fill:#5B2915;" d="M1326.905,858.825c-1.081,0.605-2.205,1.124-3.329,1.6
			c-30.651,13.142-61.258,26.241-91.908,39.383c-6.139,2.637-12.364,5.274-17.768,9.251c-6.225,4.539-11.067,10.591-14.915,17.163
			c-2.032,3.502-3.761,7.133-5.317,10.808c-0.865,2.032-1.643,6.312-2.853,8.992l6.442-37.005
			c1.167-6.873,5.923-12.493,12.45-14.828c6.139-2.118,14.569-5.058,24.036-8.56c2.853-1.038,5.793-2.118,8.819-3.286
			c5.015-1.859,10.159-3.848,15.347-5.923c1.989-0.778,3.977-1.556,5.923-2.378c3.242-1.297,6.398-2.637,9.554-3.977
			c1.556-0.692,3.113-1.34,4.669-2.032c0.649-0.303,1.34-0.562,1.989-0.865c2.421-1.038,4.756-2.118,7.047-3.156l0.043-0.043
			c2.94-1.383,5.793-2.767,8.516-4.107c1.643-0.821,3.199-1.599,4.712-2.421c1.772-0.908,3.458-1.859,5.058-2.766
			c2.896-1.6,5.49-3.242,7.825-4.799C1318.432,852.903,1322.971,855.842,1326.905,858.825z"/>
	</g>
	<g>
		<ellipse style="fill:#EDF0F9;" cx="826.604" cy="547.158" rx="155.529" ry="134.864"/>
		<ellipse style="fill:#EDF0F9;" cx="1042.171" cy="682.675" rx="54.381" ry="46.767"/>
		<path style="fill:#6C8BD9;" d="M803.782,599.534l-67.602-63.242c-1.865-1.745-1.963-4.671-0.218-6.536l0,0
			c1.745-1.865,4.671-1.963,6.536-0.218l60.508,56.604l102.631-121.105c1.651-1.948,4.569-2.189,6.518-0.538l0,0
			c1.949,1.651,2.19,4.57,0.539,6.518L803.782,599.534z"/>
	</g>
</g>
<g id="phone">
	<path style="fill:#E6E6E6;" d="M3901.302,3024.13c-6.002,64.012-369.56,50.771-798.625,10.542
		c-429.065-40.229-763.653-94.956-757.651-158.968s350.32-113.07,779.385-72.841
		C3553.476,2843.092,3907.303,2960.117,3901.302,3024.13z"/>
	<g>
		<g>
			<g>
				<path style="fill:#6F7587;" d="M2538.097,2928.051l996.768,89.344c127.534,13.023,172.571-82.664,182.083-192.584
					l182.601-2107.458c9.535-109.921-17.024-202.017-149.891-213.755l-493.276-41.036l-541.693-38.816
					c-165.699-10.832-134.298,73.218-143.834,183.092l-44.543,514.198l-16.254,187.489l-121.781,1405.793
					C2378.766,2824.215,2393.913,2921.896,2538.097,2928.051z"/>
				<path style="fill:#333E60;" d="M2460.104,2927.795l994.355,82.705c127.535,13.023,174.984-76.024,184.496-185.945
					l182.601-2107.458c9.535-109.921-17.024-202.017-149.891-213.755l-493.276-41.036l-400.921-33.338l-100.135-8.331
					c-165.699-10.832-174.936,76.07-184.472,185.944l-44.543,514.198l-16.254,187.489l-121.78,1405.793
					C2300.773,2823.959,2315.92,2921.64,2460.104,2927.795z"/>
				<path style="fill:#FFFFFF;" d="M2379.386,2753.455l1163.135,98.732c20.655,1.753,38.82-13.569,40.573-34.224L3762.156,708.49
					c1.753-20.655-13.569-38.82-34.224-40.573l-1163.135-98.732c-20.655-1.753-38.82,13.569-40.573,34.224l-179.061,2109.472
					C2343.409,2733.536,2358.731,2751.701,2379.386,2753.455z"/>
			</g>
		</g>
	</g>
	<g>
		<g>
			<path style="fill:#FED03D;" d="M3160.283,762.086c51.419,5.36,97.846,30.637,130.73,71.175
				c32.884,40.538,48.042,91.181,42.681,142.599l-39.427,378.203c-5.36,51.419-30.637,97.846-71.175,130.73
				c-40.538,32.884-91.181,48.042-142.6,42.681c-51.418-5.36-97.846-30.637-130.73-71.175
				c-32.884-40.538-48.042-91.181-42.681-142.6l39.427-378.202c5.36-51.419,30.637-97.846,71.175-130.73
				C3058.221,771.884,3108.864,756.726,3160.283,762.086L3160.283,762.086z M3167.615,691.755L3167.615,691.755
				c-145.159-15.132-276.306,91.253-291.438,236.411l-39.427,378.202c-15.132,145.158,91.253,276.305,236.411,291.438l0.001,0
				c145.158,15.132,276.305-91.253,291.438-236.411l39.427-378.203C3419.159,838.034,3312.773,706.887,3167.615,691.755
				L3167.615,691.755z"/>
			<g>
				<path style="fill:#ED9F00;" d="M3167.615,691.755L3167.615,691.755c-5.671-0.591-11.317-0.975-16.938-1.2
					c136.456,23.101,234.131,149.631,219.59,289.119l-39.427,378.203c-14.541,139.488-136.214,243.151-274.5,237.611
					c5.547,0.939,11.15,1.728,16.821,2.319l0.001,0c145.158,15.132,276.305-91.253,291.438-236.411l39.427-378.203
					C3419.159,838.034,3312.773,706.887,3167.615,691.755z"/>
				<path style="fill:#ED9F00;" d="M3017.683,804.767c36.071-29.26,80.143-44.471,125.643-43.695
					c-5.534-1.068-11.135-1.915-16.802-2.506c-51.419-5.36-102.062,9.798-142.6,42.681c-40.538,32.884-65.815,79.311-71.175,130.73
					l-39.427,378.202c-5.36,51.419,9.798,102.062,42.681,142.599c32.884,40.538,79.312,65.815,130.73,71.175
					c5.666,0.591,11.322,0.917,16.957,1.014c-44.681-8.625-84.668-32.599-113.928-68.669c-32.884-40.538-48.042-91.181-42.681-142.6
					l39.427-378.203C2951.868,884.078,2977.145,837.651,3017.683,804.767z"/>
			</g>
		</g>
		<path style="fill:#ED9F00;" d="M3396.226,1902.476l-643.501-67.083c-23.306-2.43-102.914-37.479-100.485-60.785l129.768-629.314
			c2.429-23.306,23.292-40.229,46.598-37.8l579.42,33.307c23.306,2.43,104.311,57.069,101.881,80.374l-67.083,643.502
			C3440.394,1887.982,3419.532,1904.906,3396.226,1902.476z"/>
		<path style="fill:#FED03D;" d="M3441.268,1186.668l-67.083,643.502c-2.43,23.308-23.29,40.229-46.598,37.8l-643.501-67.083
			c-23.308-2.43-40.229-23.29-37.8-46.598l67.083-643.502c2.43-23.308,23.29-40.229,46.598-37.8l643.501,67.083
			C3426.777,1142.5,3443.698,1163.361,3441.268,1186.668z"/>
		<polygon style="fill:#4D4D4D;" points="3023.892,1100.501 2670.482,1522.196 2685.424,1378.861 2927.159,1090.417 		"/>
		<path style="fill:#4D4D4D;" d="M3441.268,1186.668l-4.5,43.169l-500.615,597.326l-164.434-17.142l567.102-676.691l64.648,6.739
			C3426.777,1142.5,3443.698,1163.361,3441.268,1186.668z"/>
		<polygon style="fill:#4D4D4D;" points="3430.955,1285.596 3424.43,1348.191 3016.035,1835.491 2973.808,1831.089 		"/>
		<g>
			<path style="fill:#ED9F00;" d="M3126.208,1645.477l-24.334-194.658c23.629-14.864,40.452-40.019,43.571-69.937
				c5.391-51.71-32.158-98-83.869-103.391c-51.71-5.391-98,32.159-103.391,83.869c-3.119,29.917,8.155,58.002,28.209,77.419
				l-63.96,185.454L3126.208,1645.477z"/>
			<path style="fill:#B3B3B3;" d="M3034.142,1369.279c3.981-38.185,30.274-68.625,64.573-79.777
				c-11.073-6.371-23.615-10.601-37.139-12.01c-51.71-5.391-98,32.159-103.391,83.869c-3.119,29.917,8.154,58.002,28.209,77.419
				l-63.96,185.454l75.958,7.918l63.96-185.454C3042.297,1427.28,3031.023,1399.196,3034.142,1369.279z"/>
		</g>
	</g>
	<g>
		<g>
			<path style="fill:#EDF0F9;" d="M3483.961,2436.759l-983.125-92.177c-15.931-1.494-27.635-15.619-26.141-31.551l10.041-107.094
				c1.494-15.931,15.619-27.635,31.551-26.142l983.125,92.177c15.931,1.494,27.635,15.619,26.141,31.551l-10.041,107.094
				C3514.018,2426.549,3499.893,2438.253,3483.961,2436.759z"/>
			<g>
				<path style="fill:#666666;" d="M2535.69,2290.011l1.739-18.557l-14.517-26.833l7.053,0.661l7.397,14.018
					c1.362,2.619,2.615,5.229,3.758,7.828c1.53-2.167,3.366-4.598,5.507-7.291l9.693-12.083l6.754,0.633l-19.849,23.611
					l-1.739,18.556L2535.69,2290.011z"/>
				<path style="fill:#666666;" d="M2557.348,2276.035c0.551-5.877,2.593-10.077,6.125-12.6c2.949-2.095,6.386-2.958,10.311-2.59
					c4.362,0.409,7.794,2.173,10.296,5.29c2.5,3.119,3.515,7.198,3.042,12.238c-0.383,4.084-1.296,7.238-2.74,9.464
					c-1.445,2.227-3.398,3.877-5.86,4.952c-2.463,1.076-5.078,1.483-7.847,1.224c-4.442-0.416-7.901-2.177-10.372-5.282
					C2557.83,2285.626,2556.846,2281.394,2557.348,2276.035z M2562.875,2276.553c-0.381,4.063,0.221,7.19,1.805,9.378
					c1.582,2.188,3.719,3.409,6.408,3.661c2.669,0.25,4.985-0.558,6.949-2.423c1.964-1.866,3.142-4.881,3.531-9.044
					c0.368-3.925-0.245-6.981-1.838-9.171c-1.594-2.188-3.715-3.408-6.364-3.656c-2.689-0.252-5.016,0.545-6.977,2.391
					C2564.428,2269.534,2563.256,2272.488,2562.875,2276.553z"/>
				<path style="fill:#666666;" d="M2612.694,2297.23l0.437-4.662c-2.806,3.354-6.33,4.833-10.573,4.435
					c-1.873-0.175-3.588-0.697-5.145-1.566c-1.556-0.87-2.677-1.884-3.36-3.044c-0.687-1.159-1.113-2.54-1.285-4.145
					c-0.121-1.076-0.073-2.76,0.142-5.051l1.843-19.662l5.379,0.505l-1.649,17.6c-0.264,2.809-0.332,4.712-0.203,5.708
					c0.205,1.447,0.818,2.624,1.839,3.534c1.019,0.909,2.337,1.439,3.95,1.591s3.166-0.12,4.658-0.814
					c1.491-0.693,2.599-1.726,3.32-3.095c0.72-1.369,1.208-3.408,1.462-6.118l1.594-17.002l5.379,0.504l-2.975,31.734
					L2612.694,2297.23z"/>
				<path style="fill:#666666;" d="M2625.872,2298.466l2.975-31.734l4.841,0.454l-0.45,4.811c1.446-2.135,2.726-3.512,3.839-4.131
					s2.297-0.87,3.553-0.752c1.812,0.17,3.601,0.921,5.365,2.251l-2.32,4.817c-1.242-0.9-2.521-1.412-3.835-1.536
					c-1.176-0.109-2.265,0.146-3.268,0.764c-1.003,0.62-1.762,1.538-2.278,2.756c-0.775,1.856-1.271,3.92-1.484,6.191l-1.558,16.613
					L2625.872,2298.466z"/>
				<path style="fill:#666666;" d="M2664.002,2302.041l4.106-43.807l16.525,1.55c2.908,0.272,5.116,0.62,6.624,1.043
					c2.117,0.561,3.855,1.412,5.216,2.554c1.36,1.144,2.398,2.662,3.115,4.558c0.717,1.896,0.973,3.931,0.77,6.102
					c-0.35,3.726-1.83,6.766-4.442,9.124c-2.614,2.357-7.018,3.245-13.212,2.664l-11.235-1.054l-1.67,17.81L2664.002,2302.041z
					 M2671.953,2279.605l11.325,1.063c3.744,0.351,6.47-0.097,8.174-1.344c1.705-1.247,2.675-3.136,2.912-5.666
					c0.172-1.832-0.144-3.444-0.947-4.836s-1.944-2.368-3.419-2.929c-0.951-0.35-2.742-0.648-5.372-0.895l-11.205-1.051
					L2671.953,2279.605z"/>
				<path style="fill:#666666;" d="M2725.206,2303.83c-2.15,1.507-4.18,2.523-6.088,3.047c-1.908,0.524-3.918,0.688-6.029,0.49
					c-3.485-0.327-6.085-1.431-7.799-3.309c-1.713-1.879-2.444-4.143-2.196-6.793c0.146-1.554,0.632-2.939,1.46-4.158
					c0.827-1.219,1.851-2.163,3.068-2.832c1.218-0.67,2.563-1.136,4.035-1.401c1.082-0.179,2.701-0.299,4.857-0.357
					c4.391-0.111,7.646-0.429,9.765-0.954c0.089-0.734,0.144-1.202,0.162-1.401c0.206-2.19-0.157-3.782-1.09-4.774
					c-1.261-1.343-3.246-2.144-5.954-2.397c-2.53-0.237-4.44,0.032-5.728,0.805c-1.289,0.774-2.328,2.259-3.116,4.456l-5.191-1.211
					c0.688-2.206,1.646-3.949,2.872-5.231c1.225-1.282,2.908-2.199,5.051-2.752c2.141-0.553,4.576-0.701,7.306-0.445
					c2.709,0.254,4.881,0.779,6.516,1.575c1.632,0.797,2.802,1.715,3.51,2.756c0.705,1.041,1.149,2.313,1.329,3.817
					c0.093,0.934,0.027,2.596-0.196,4.985l-0.673,7.172c-0.469,5.001-0.65,8.173-0.546,9.52s0.438,2.659,1.003,3.938l-5.617-0.527
					C2725.462,2306.679,2725.227,2305.34,2725.206,2303.83z M2725.885,2291.776c-2.027,0.613-5.02,1.017-8.976,1.208
					c-2.241,0.111-3.839,0.323-4.793,0.636c-0.953,0.313-1.716,0.83-2.284,1.55c-0.57,0.72-0.899,1.549-0.987,2.484
					c-0.134,1.435,0.296,2.681,1.293,3.738c0.995,1.059,2.539,1.686,4.631,1.882c2.071,0.193,3.958-0.086,5.655-0.842
					c1.699-0.755,3.001-1.884,3.905-3.387c0.692-1.161,1.148-2.927,1.37-5.298L2725.885,2291.776z"/>
				<path style="fill:#666666;" d="M2736.903,2299.32l5.397-0.338c0.1,2.16,0.777,3.871,2.036,5.135
					c1.258,1.264,3.111,2.01,5.562,2.239c2.47,0.232,4.352-0.099,5.641-0.993c1.289-0.894,1.998-2.018,2.125-3.372
					c0.114-1.215-0.324-2.221-1.314-3.018c-0.692-0.548-2.469-1.326-5.328-2.339c-3.851-1.365-6.504-2.483-7.96-3.354
					c-1.455-0.87-2.518-1.984-3.183-3.343c-0.668-1.359-0.928-2.815-0.782-4.369c0.133-1.414,0.58-2.693,1.341-3.838
					c0.76-1.145,1.735-2.063,2.926-2.755c0.894-0.539,2.083-0.956,3.569-1.248c1.483-0.293,3.052-0.362,4.706-0.207
					c2.489,0.233,4.643,0.797,6.458,1.69s3.113,1.995,3.895,3.305c0.782,1.309,1.246,3.006,1.392,5.089l-5.325,0.225
					c-0.087-1.656-0.659-2.996-1.719-4.021c-1.06-1.023-2.635-1.634-4.727-1.83c-2.47-0.231-4.271,0.013-5.403,0.729
					c-1.134,0.719-1.75,1.625-1.853,2.721c-0.065,0.697,0.094,1.346,0.48,1.944c0.383,0.618,1.025,1.161,1.927,1.628
					c0.52,0.249,2.06,0.855,4.622,1.819c3.71,1.373,6.286,2.453,7.729,3.241c1.444,0.789,2.535,1.842,3.277,3.156
					c0.74,1.315,1.025,2.89,0.854,4.723c-0.168,1.793-0.85,3.432-2.044,4.918c-1.196,1.485-2.819,2.568-4.872,3.251
					c-2.054,0.682-4.325,0.905-6.815,0.672c-4.123-0.387-7.186-1.537-9.186-3.454
					C2738.326,2305.412,2737.186,2302.743,2736.903,2299.32z"/>
				<path style="fill:#666666;" d="M2767.503,2302.189l5.397-0.338c0.099,2.16,0.777,3.871,2.036,5.135
					c1.257,1.263,3.111,2.01,5.562,2.239c2.47,0.231,4.351-0.1,5.64-0.993c1.29-0.895,1.998-2.018,2.125-3.373
					c0.114-1.215-0.324-2.22-1.314-3.017c-0.692-0.548-2.468-1.326-5.327-2.339c-3.851-1.365-6.504-2.483-7.96-3.354
					c-1.455-0.87-2.518-1.984-3.184-3.343c-0.667-1.359-0.927-2.815-0.781-4.369c0.133-1.414,0.579-2.693,1.34-3.838
					c0.76-1.145,1.734-2.063,2.926-2.756c0.895-0.538,2.084-0.955,3.569-1.248c1.484-0.292,3.053-0.361,4.706-0.206
					c2.49,0.233,4.643,0.797,6.459,1.69c1.814,0.894,3.113,1.995,3.895,3.305c0.782,1.309,1.245,3.005,1.392,5.089l-5.327,0.224
					c-0.086-1.655-0.658-2.995-1.717-4.02c-1.06-1.023-2.635-1.634-4.728-1.83c-2.47-0.231-4.272,0.012-5.403,0.729
					c-1.133,0.719-1.75,1.625-1.853,2.72c-0.065,0.698,0.094,1.346,0.48,1.945c0.383,0.618,1.026,1.161,1.927,1.627
					c0.521,0.25,2.06,0.856,4.623,1.82c3.71,1.373,6.286,2.453,7.729,3.241c1.442,0.789,2.535,1.841,3.276,3.156
					c0.74,1.315,1.025,2.89,0.854,4.723c-0.168,1.793-0.849,3.432-2.045,4.917c-1.194,1.486-2.817,2.569-4.87,3.251
					c-2.055,0.683-4.326,0.906-6.815,0.673c-4.124-0.387-7.187-1.537-9.187-3.454
					C2768.926,2308.281,2767.785,2305.612,2767.503,2302.189z"/>
				<path style="fill:#666666;" d="M2805.223,2315.281l-6.737-32.644l5.559,0.521l3.333,18.791l1.244,6.989
					c0.109-0.331,0.863-2.461,2.256-6.391l6.793-18.112l5.528,0.519l3.024,18.853l1.016,6.215l2.397-5.955l7.158-17.838l5.229,0.491
					l-12.895,30.804l-5.588-0.524l-3.27-19.478l-0.717-5.523l-8.714,23.811L2805.223,2315.281z"/>
				<path style="fill:#666666;" d="M2843.046,2302.821c0.551-5.876,2.592-10.076,6.125-12.599c2.949-2.095,6.386-2.958,10.311-2.59
					c4.362,0.409,7.794,2.173,10.296,5.29c2.5,3.119,3.515,7.198,3.042,12.238c-0.383,4.084-1.296,7.238-2.741,9.464
					c-1.444,2.227-3.397,3.877-5.86,4.952c-2.462,1.075-5.078,1.483-7.846,1.224c-4.442-0.416-7.9-2.177-10.372-5.282
					C2843.528,2312.412,2842.544,2308.181,2843.046,2302.821z M2848.573,2303.34c-0.381,4.063,0.221,7.19,1.805,9.378
					c1.582,2.188,3.719,3.409,6.408,3.661c2.669,0.25,4.985-0.558,6.949-2.423c1.964-1.866,3.141-4.881,3.531-9.044
					c0.368-3.925-0.246-6.981-1.838-9.171c-1.594-2.188-3.715-3.408-6.364-3.656c-2.689-0.252-5.016,0.545-6.977,2.391
					C2850.126,2296.321,2848.954,2299.275,2848.573,2303.34z"/>
				<path style="fill:#666666;" d="M2877.535,2322.062l2.975-31.733l4.841,0.453l-0.45,4.811c1.446-2.134,2.726-3.512,3.839-4.131
					s2.297-0.87,3.552-0.752c1.813,0.17,3.602,0.921,5.366,2.251l-2.32,4.817c-1.242-0.9-2.521-1.412-3.835-1.536
					c-1.176-0.109-2.265,0.146-3.268,0.764c-1.003,0.62-1.762,1.538-2.278,2.756c-0.775,1.856-1.271,3.921-1.484,6.191
					l-1.558,16.614L2877.535,2322.062z"/>
				<path style="fill:#666666;" d="M2918.563,2325.908l0.375-4.004c-2.308,2.96-5.413,4.256-9.317,3.89
					c-2.53-0.237-4.791-1.153-6.781-2.746c-1.992-1.593-3.452-3.694-4.384-6.305c-0.93-2.608-1.244-5.537-0.939-8.784
					c0.297-3.167,1.095-5.991,2.393-8.473c1.297-2.48,3.066-4.309,5.308-5.486c2.239-1.176,4.664-1.642,7.274-1.397
					c1.912,0.18,3.578,0.742,4.997,1.689c1.418,0.947,2.535,2.111,3.349,3.494l1.475-15.718l5.348,0.502l-4.106,43.806
					L2918.563,2325.908z M2903.045,2308.478c-0.381,4.063,0.19,7.183,1.716,9.354c1.524,2.174,3.452,3.368,5.782,3.587
					c2.351,0.221,4.438-0.554,6.262-2.321c1.824-1.769,2.92-4.625,3.29-8.569c0.407-4.343-0.13-7.608-1.612-9.798
					c-1.483-2.188-3.45-3.398-5.9-3.628c-2.391-0.225-4.479,0.565-6.266,2.367
					C2904.529,2301.271,2903.439,2304.274,2903.045,2308.478z"/>
			</g>
		</g>
		<g>
			<path style="fill:#EDF0F9;" d="M3505.86,2203.202l-983.125-92.177c-15.931-1.494-27.635-15.619-26.141-31.551l10.041-107.094
				c1.494-15.931,15.619-27.635,31.551-26.141l983.125,92.177c15.931,1.494,27.635,15.619,26.141,31.551l-10.041,107.094
				C3535.917,2192.992,3521.791,2204.696,3505.86,2203.202z"/>
			<g>
				<path style="fill:#666666;" d="M2578.1,2014.187l5.797,0.544l-2.373,25.31c-0.413,4.402-1.238,7.852-2.479,10.348
					c-1.237,2.497-3.233,4.436-5.985,5.814c-2.752,1.38-6.238,1.872-10.462,1.476c-4.104-0.385-7.396-1.407-9.872-3.065
					c-2.477-1.659-4.147-3.881-5.012-6.665c-0.865-2.783-1.078-6.496-0.644-11.138l2.373-25.309l5.797,0.543l-2.37,25.279
					c-0.356,3.806-0.266,6.643,0.271,8.512c0.538,1.869,1.623,3.373,3.255,4.51c1.633,1.138,3.692,1.823,6.184,2.058
					c4.263,0.399,7.391-0.281,9.385-2.045c1.993-1.762,3.249-5.392,3.765-10.891L2578.1,2014.187z"/>
				<path style="fill:#666666;" d="M2587.49,2049.702l5.397-0.338c0.1,2.16,0.777,3.871,2.036,5.135
					c1.258,1.264,3.111,2.01,5.562,2.239c2.47,0.231,4.351-0.099,5.641-0.993c1.289-0.894,1.998-2.018,2.125-3.373
					c0.114-1.215-0.325-2.22-1.315-3.017c-0.692-0.547-2.468-1.326-5.328-2.339c-3.85-1.365-6.503-2.483-7.96-3.354
					c-1.455-0.87-2.517-1.984-3.183-3.343c-0.667-1.358-0.927-2.816-0.781-4.369c0.133-1.414,0.58-2.693,1.34-3.838
					c0.761-1.145,1.735-2.063,2.927-2.755c0.894-0.539,2.083-0.955,3.567-1.248c1.484-0.293,3.054-0.362,4.708-0.207
					c2.489,0.233,4.643,0.797,6.458,1.69c1.815,0.894,3.113,1.995,3.895,3.305c0.781,1.31,1.246,3.006,1.392,5.089l-5.326,0.224
					c-0.086-1.655-0.659-2.995-1.719-4.02c-1.06-1.023-2.635-1.633-4.727-1.829c-2.47-0.232-4.271,0.011-5.402,0.729
					c-1.135,0.718-1.75,1.625-1.854,2.72c-0.065,0.698,0.095,1.346,0.481,1.944c0.383,0.619,1.025,1.161,1.927,1.628
					c0.52,0.249,2.06,0.855,4.622,1.819c3.709,1.373,6.286,2.453,7.729,3.241c1.444,0.789,2.536,1.842,3.276,3.156
					c0.742,1.316,1.026,2.89,0.854,4.723c-0.168,1.793-0.85,3.432-2.044,4.918c-1.195,1.485-2.818,2.569-4.872,3.25
					c-2.053,0.683-4.325,0.906-6.815,0.673c-4.123-0.387-7.185-1.537-9.186-3.454
					C2588.913,2055.795,2587.772,2053.126,2587.49,2049.702z"/>
				<path style="fill:#666666;" d="M2642.034,2054.063l5.494,1.207c-1.182,3.166-3.04,5.533-5.579,7.104
					c-2.539,1.571-5.651,2.184-9.337,1.838c-4.641-0.435-8.188-2.209-10.639-5.322s-3.435-7.25-2.951-12.41
					c0.5-5.338,2.264-9.354,5.288-12.044c3.026-2.69,6.73-3.831,11.112-3.42c4.244,0.397,7.575,2.168,9.994,5.309
					c2.419,3.141,3.383,7.33,2.891,12.569c-0.029,0.319-0.085,0.796-0.164,1.432l-23.667-2.219
					c-0.128,3.505,0.608,6.267,2.208,8.285c1.599,2.019,3.723,3.152,6.373,3.401c1.972,0.185,3.703-0.175,5.194-1.081
					C2639.744,2057.808,2641.005,2056.257,2642.034,2054.063z M2625.19,2043.712l17.719,1.661c0.012-2.691-0.478-4.757-1.469-6.196
					c-1.519-2.232-3.643-3.476-6.372-3.732c-2.471-0.232-4.624,0.4-6.463,1.895
					C2626.769,2038.836,2625.629,2040.96,2625.19,2043.712z"/>
				<path style="fill:#666666;" d="M2653.327,2065.432l2.976-31.734l4.841,0.453l-0.451,4.812c1.446-2.136,2.727-3.513,3.84-4.132
					c1.113-0.619,2.297-0.87,3.553-0.752c1.812,0.17,3.6,0.921,5.365,2.251l-2.32,4.817c-1.242-0.9-2.521-1.412-3.836-1.536
					c-1.176-0.109-2.265,0.146-3.268,0.765c-1.002,0.619-1.762,1.538-2.277,2.755c-0.776,1.857-1.271,3.921-1.485,6.191
					l-1.558,16.614L2653.327,2065.432z"/>
				<path style="fill:#666666;" d="M2691.396,2069.001l4.107-43.807l5.946,0.557l19.785,36.551l3.225-34.394l5.558,0.521
					l-4.107,43.806l-5.946-0.558l-19.781-36.581l-3.228,34.424L2691.396,2069.001z"/>
				<path style="fill:#666666;" d="M2756.039,2071.112c-2.15,1.507-4.18,2.522-6.088,3.047c-1.909,0.523-3.919,0.688-6.03,0.489
					c-3.486-0.327-6.086-1.43-7.798-3.309c-1.714-1.879-2.445-4.143-2.196-6.792c0.146-1.555,0.632-2.939,1.459-4.159
					c0.828-1.218,1.851-2.162,3.068-2.832c1.219-0.669,2.563-1.136,4.036-1.4c1.081-0.18,2.7-0.299,4.856-0.358
					c4.392-0.11,7.646-0.429,9.766-0.953c0.089-0.735,0.144-1.202,0.162-1.401c0.205-2.191-0.159-3.783-1.09-4.774
					c-1.261-1.344-3.246-2.144-5.954-2.397c-2.53-0.237-4.44,0.031-5.728,0.805c-1.289,0.774-2.328,2.258-3.116,4.455l-5.192-1.21
					c0.689-2.206,1.646-3.95,2.872-5.231c1.225-1.282,2.909-2.199,5.05-2.753c2.143-0.553,4.578-0.701,7.308-0.445
					c2.709,0.254,4.88,0.78,6.514,1.576s2.804,1.715,3.511,2.755c0.705,1.042,1.148,2.314,1.33,3.817
					c0.093,0.934,0.027,2.596-0.196,4.986l-0.673,7.171c-0.469,5.001-0.651,8.174-0.546,9.52c0.104,1.347,0.438,2.659,1.002,3.938
					l-5.618-0.526C2756.294,2073.96,2756.06,2072.622,2756.039,2071.112z M2756.718,2059.059c-2.027,0.613-5.02,1.017-8.977,1.208
					c-2.24,0.111-3.839,0.323-4.792,0.636s-1.716,0.829-2.286,1.549c-0.568,0.721-0.897,1.549-0.985,2.484
					c-0.135,1.435,0.296,2.681,1.292,3.739c0.996,1.058,2.539,1.685,4.632,1.881c2.071,0.194,3.956-0.086,5.655-0.842
					c1.699-0.754,3.001-1.883,3.905-3.387c0.691-1.16,1.147-2.926,1.37-5.297L2756.718,2059.059z"/>
				<path style="fill:#666666;" d="M2768.999,2076.276l2.976-31.734l4.812,0.451l-0.417,4.453c1.141-1.461,2.583-2.587,4.325-3.378
					s3.669-1.088,5.78-0.891c2.351,0.221,4.232,0.891,5.645,2.007c1.413,1.117,2.347,2.581,2.799,4.393
					c2.857-3.47,6.298-5.017,10.322-4.64c3.147,0.295,5.486,1.394,7.017,3.296s2.125,4.666,1.785,8.291l-2.043,21.784l-5.35-0.502
					l1.875-19.991c0.201-2.15,0.173-3.716-0.087-4.695c-0.26-0.979-0.821-1.8-1.684-2.464c-0.862-0.663-1.911-1.053-3.146-1.169
					c-2.231-0.209-4.153,0.359-5.767,1.705c-1.614,1.346-2.574,3.652-2.881,6.919l-1.729,18.438l-5.378-0.505l1.934-20.617
					c0.224-2.391-0.045-4.225-0.811-5.503c-0.766-1.277-2.144-2.009-4.135-2.195c-1.515-0.143-2.951,0.125-4.31,0.801
					c-1.36,0.677-2.401,1.755-3.123,3.234c-0.721,1.48-1.218,3.664-1.488,6.553l-1.544,16.465L2768.999,2076.276z"/>
				<path style="fill:#666666;" d="M2842.659,2072.874l5.494,1.207c-1.182,3.166-3.041,5.533-5.579,7.104
					c-2.54,1.571-5.651,2.184-9.337,1.838c-4.643-0.436-8.188-2.209-10.64-5.322c-2.451-3.114-3.435-7.251-2.951-12.41
					c0.5-5.339,2.264-9.354,5.289-12.044s6.729-3.831,11.112-3.42c4.244,0.397,7.574,2.168,9.993,5.309s3.382,7.33,2.892,12.569
					c-0.03,0.319-0.086,0.796-0.165,1.432l-23.667-2.219c-0.128,3.505,0.608,6.267,2.208,8.285c1.599,2.019,3.723,3.152,6.373,3.401
					c1.972,0.185,3.704-0.176,5.195-1.081C2840.368,2076.618,2841.628,2075.067,2842.659,2072.874z M2825.814,2062.522l17.719,1.661
					c0.012-2.691-0.478-4.757-1.469-6.197c-1.519-2.232-3.643-3.476-6.372-3.731c-2.47-0.232-4.624,0.4-6.463,1.896
					C2827.392,2057.646,2826.253,2059.771,2825.814,2062.522z"/>
			</g>
		</g>
		<g>
			<path style="fill:#3664C9;" d="M3462.063,2670.316l-983.125-92.177c-15.931-1.494-27.635-15.619-26.141-31.551l10.041-107.094
				c1.494-15.931,15.619-27.635,31.551-26.141l983.125,92.177c15.931,1.494,27.635,15.619,26.141,31.551l-10.041,107.094
				C3492.12,2660.106,3477.994,2671.81,3462.063,2670.316z"/>
			<g>
				<path style="fill:#FFFFFF;" d="M2863.703,2542.613l6.883,0.044c0.065,2.767,0.608,5.082,1.626,6.946
					c1.017,1.864,2.719,3.455,5.104,4.77c2.386,1.315,5.133,2.118,8.243,2.41c2.761,0.259,5.236,0.077,7.428-0.545
					c2.191-0.623,3.871-1.601,5.037-2.935c1.167-1.333,1.829-2.846,1.987-4.538c0.161-1.716-0.195-3.261-1.07-4.636
					c-0.875-1.374-2.416-2.604-4.622-3.689c-1.414-0.709-4.578-1.902-9.488-3.581c-4.912-1.677-8.325-3.146-10.24-4.403
					c-2.483-1.613-4.271-3.493-5.361-5.641c-1.092-2.147-1.519-4.478-1.283-6.99c0.259-2.761,1.284-5.268,3.077-7.521
					c1.792-2.254,4.25-3.86,7.377-4.822c3.126-0.962,6.53-1.27,10.212-0.925c4.055,0.381,7.569,1.368,10.543,2.965
					c2.976,1.597,5.178,3.741,6.605,6.435c1.429,2.693,2.056,5.65,1.878,8.871l-6.989-0.129c-0.049-3.492-1.065-6.222-3.051-8.19
					c-1.987-1.968-5.083-3.149-9.286-3.543c-4.378-0.41-7.644,0.093-9.796,1.51c-2.153,1.416-3.335,3.257-3.547,5.52
					c-0.185,1.966,0.373,3.648,1.671,5.051c1.274,1.398,4.79,3.04,10.549,4.922c5.758,1.883,9.685,3.425,11.781,4.624
					c3.046,1.767,5.222,3.847,6.528,6.239c1.306,2.394,1.821,5.059,1.546,7.993c-0.272,2.91-1.362,5.575-3.271,7.993
					c-1.907,2.418-4.49,4.196-7.745,5.334c-3.257,1.137-6.837,1.523-10.741,1.157c-4.95-0.465-9.03-1.575-12.241-3.331
					c-3.21-1.757-5.631-4.173-7.262-7.249S2863.458,2546.28,2863.703,2542.613z"/>
				<path style="fill:#FFFFFF;" d="M2914.664,2565.12l3.716-39.625l6.717,0.63l-3.716,39.625L2914.664,2565.12z M2919.068,2518.145
					l0.725-7.724l6.717,0.63l-0.725,7.724L2919.068,2518.145z"/>
				<path style="fill:#FFFFFF;" d="M2930.065,2569.877l6.438,1.582c0.084,2.041,0.706,3.579,1.863,4.616
					c1.55,1.399,3.767,2.235,6.653,2.507c3.108,0.291,5.568-0.106,7.376-1.191s3.115-2.719,3.922-4.901
					c0.477-1.336,0.908-4.193,1.293-8.574c-3.259,3.183-7.077,4.568-11.455,4.158c-5.448-0.511-9.479-2.871-12.097-7.082
					c-2.615-4.209-3.666-9.063-3.15-14.56c0.354-3.781,1.365-7.206,3.032-10.274c1.668-3.068,3.884-5.351,6.646-6.849
					c2.762-1.497,5.897-2.081,9.404-1.753c4.677,0.438,8.354,2.691,11.035,6.756l0.448-4.775l6.194,0.581l-3.212,34.252
					c-0.578,6.169-1.617,10.481-3.114,12.938s-3.679,4.303-6.542,5.541c-2.863,1.237-6.286,1.669-10.266,1.296
					c-4.727-0.443-8.444-1.865-11.154-4.265C2930.67,2577.48,2929.564,2574.146,2930.065,2569.877z M2937.857,2546.593
					c-0.488,5.199,0.188,9.089,2.029,11.671c1.841,2.581,4.315,4.018,7.425,4.31c3.084,0.289,5.782-0.656,8.095-2.836
					c2.312-2.179,3.707-5.807,4.183-10.881c0.455-4.851-0.278-8.608-2.199-11.272s-4.398-4.139-7.434-4.423
					c-2.984-0.28-5.635,0.694-7.952,2.924C2939.688,2538.314,2938.305,2541.817,2937.857,2546.593z"/>
				<path style="fill:#FFFFFF;" d="M2974.103,2570.693l3.716-39.625l6.044,0.566l-0.528,5.634c3.319-4.079,7.727-5.862,13.224-5.347
					c2.388,0.224,4.543,0.859,6.466,1.904c1.922,1.046,3.314,2.313,4.179,3.799s1.405,3.205,1.624,5.158
					c0.132,1.268,0.053,3.455-0.239,6.564l-2.284,24.365l-6.717-0.63l2.26-24.104c0.257-2.736,0.188-4.807-0.207-6.212
					c-0.396-1.404-1.221-2.573-2.477-3.507c-1.255-0.933-2.777-1.483-4.567-1.651c-2.861-0.269-5.416,0.408-7.662,2.029
					c-2.248,1.621-3.609,4.97-4.085,10.044l-2.029,21.641L2974.103,2570.693z"/>
				<path style="fill:#FFFFFF;" d="M3037.868,2576.672l3.716-39.625l6.717,0.63l-3.716,39.625L3037.868,2576.672z
					 M3042.272,2529.696l0.725-7.724l6.717,0.63l-0.725,7.724L3042.272,2529.696z"/>
				<path style="fill:#FFFFFF;" d="M3054.809,2578.261l3.716-39.625l6.044,0.566l-0.528,5.634c3.319-4.08,7.727-5.862,13.224-5.347
					c2.389,0.224,4.543,0.858,6.466,1.904c1.922,1.046,3.314,2.313,4.18,3.799c0.863,1.486,1.404,3.205,1.623,5.158
					c0.132,1.268,0.054,3.455-0.238,6.564l-2.284,24.364l-6.717-0.63l2.26-24.104c0.257-2.735,0.188-4.806-0.208-6.211
					c-0.395-1.405-1.221-2.573-2.476-3.507c-1.255-0.933-2.777-1.483-4.568-1.651c-2.86-0.269-5.415,0.408-7.662,2.029
					c-2.248,1.621-3.609,4.969-4.085,10.043l-2.029,21.641L3054.809,2578.261z"/>
			</g>
		</g>
	</g>
</g>
</svg>
